<svg xmlns="http://www.w3.org/2000/svg" xmlns:xlink="http://www.w3.org/1999/xlink" width="92.81298828125" height="21.714019775390625" viewBox="0 0 92.81298828125 21.714019775390625" fill="none"><path d="M47.783 3L49.7887 3L48.8336 5.596L48.7902 5.7192L51.4472 5.7192L51.4125 5.6048L51.0738 4.496L52.9841 4.496L53.8611 7.3912L52.6541 7.3912L52.6541 7.4088L46.2808 7.4088L47.783 3ZM30.3649 3.0616L44.6137 3.0616L44.6137 5.0416L32.553 5.0416L32.553 16.4552L31.8149 18.6024L29.6355 18.6024L30.3649 16.4992L30.3649 3.0616ZM85.7885 4.9536L84.677 4.9536L84.6597 5.0152L84.5729 5.2968L82.6626 5.2968L82.7321 5.068L82.7668 4.9536L80.8999 4.9536L80.9347 5.068L81.0041 5.2968L79.0939 5.2968L79.007 5.0152L78.9897 4.9536L78.0085 4.9536L78.0085 3.6512L78.6163 3.6512L78.5816 3.5456L78.46 3.0616L80.3529 3.0616L80.5092 3.5896L80.5266 3.6512L83.1402 3.6512L83.1575 3.5896L83.2964 3.0616L85.198 3.0616L85.0678 3.5368L85.0331 3.6512L85.7885 3.6512L85.7885 4.9536ZM91.5714 7.8048C91.4435 7.97549 91.336 8.11538 91.2414 8.2184L91.1459 8.3152L91.2761 8.3592C91.5162 8.44687 91.7685 8.53255 92.0316 8.6056C92.2729 8.67263 92.5181 8.72151 92.7783 8.764L92.7783 10.5504C92.0711 10.4639 91.3387 10.2703 90.5728 9.9784C90.1725 9.82583 89.8434 9.68303 89.5916 9.5472L89.5482 9.5296L89.5048 9.5472C89.1972 9.72589 88.8433 9.88959 88.4455 10.04C88.2465 10.1152 88.0871 10.1768 87.9505 10.216C87.6064 10.3147 87.2143 10.4045 86.7783 10.48C86.6053 10.51 86.4475 10.5329 86.3181 10.5504L86.3181 8.764C86.6668 8.70885 87.0278 8.62697 87.3861 8.5176C87.5785 8.45893 87.7278 8.40725 87.8463 8.3592L87.9679 8.3152L87.8811 8.2184C87.5048 7.81769 87.1672 7.30375 86.8652 6.6784C86.7383 6.41574 86.6348 6.17998 86.5613 5.9744L88.7581 5.9744C88.8464 6.20381 88.9523 6.41362 89.0706 6.5992C89.198 6.799 89.3427 6.98481 89.5048 7.1624L89.5743 7.2416L89.635 7.1624C89.7798 6.9867 89.9192 6.78076 90.0605 6.5376C90.1311 6.41615 90.1921 6.30795 90.2342 6.2208C90.339 6.00373 90.4329 5.74607 90.5207 5.4464C90.5646 5.29683 90.6017 5.16664 90.6249 5.0592L90.6423 4.9536L86.266 4.9536L86.8131 3.0616L88.7407 3.0616L88.6018 3.5368L88.567 3.6512L92.7783 3.6512L92.7783 5.0328C92.7013 5.43265 92.5837 5.8468 92.4223 6.2736C92.3411 6.48817 92.2706 6.6594 92.2052 6.7928C92.0413 7.12716 91.8272 7.46343 91.5714 7.8048ZM76.6279 18.5584L74.5092 18.5584L74.5092 3.1056L76.6279 3.1056L76.6279 18.5584ZM54.5123 8.324L54.5123 3.1496L56.5441 3.1496L56.5441 6.3264L56.7091 6.0624L58.3502 3.3872L60.356 3.3872L57.6903 7.6728L56.5441 7.6728L56.5441 7.7608C56.5441 7.88003 56.5733 8.00615 56.6223 8.1392C56.6467 8.20532 56.6666 8.25352 56.6917 8.2976L56.7004 8.3152L56.7091 8.324C56.7971 8.40574 56.9007 8.45841 57.013 8.4912C57.0704 8.50798 57.1184 8.5176 57.1606 8.5176L60.8596 8.5176L60.1649 10.2776L56.0405 10.2776C55.9084 10.2776 55.7707 10.2548 55.6324 10.2072C55.5635 10.1835 55.5082 10.1596 55.4674 10.1368C55.3417 10.0776 55.2176 9.98542 55.1027 9.8728C55.0453 9.81652 55.0036 9.76625 54.9725 9.7232L54.9638 9.7232C54.8772 9.62114 54.8024 9.48424 54.7294 9.3184C54.6926 9.23477 54.6615 9.1605 54.6425 9.0984C54.5878 8.93218 54.5516 8.75472 54.5297 8.5616C54.5187 8.46537 54.5123 8.38582 54.5123 8.324ZM62.8914 5.2352L62.8914 3.264L72.5643 3.264L72.5643 9.4944L65.4702 9.4944L65.4616 9.5736L65.149 11.9584L65.1403 12.064L72.7206 12.064L72.7206 16.2792C72.7206 16.4812 72.6893 16.6908 72.6424 16.9128C72.619 17.0236 72.596 17.1163 72.5729 17.1856C72.5149 17.3605 72.4356 17.5293 72.3298 17.7048C72.2771 17.7923 72.2312 17.8645 72.1909 17.916C72.0894 18.0456 71.9671 18.1656 71.8175 18.2768C71.7429 18.3323 71.6796 18.3712 71.6265 18.4C71.4934 18.4723 71.3351 18.5292 71.1576 18.5584C71.0687 18.573 70.9924 18.576 70.9319 18.576L62.9956 18.576L63.6815 16.6048L69.9159 16.6048C70.0265 16.6048 70.1315 16.5663 70.2372 16.4904C70.2887 16.4534 70.3271 16.4144 70.3588 16.376C70.4361 16.2823 70.4912 16.1664 70.5151 16.024C70.5247 15.9662 70.5238 15.9128 70.5238 15.8656C70.5238 15.8566 70.5238 15.8392 70.5238 15.8392L70.5238 14.0352L62.9001 14.0352L63.6295 7.5232L70.3761 7.5232L70.3761 5.2352L62.8914 5.2352ZM37.4242 5.5432L36.9813 6.5904L36.9292 6.7136L44.1882 6.7136L44.1882 11.1488C44.1882 11.3235 44.1686 11.5051 44.1274 11.6944C44.1069 11.7887 44.0868 11.8649 44.0666 11.9232C44.0156 12.0711 43.9384 12.2165 43.8496 12.3632C43.8054 12.4362 43.77 12.4967 43.7367 12.5392C43.6531 12.6461 43.5437 12.7435 43.4154 12.8384C43.3513 12.8858 43.2966 12.9275 43.2504 12.9528C43.1349 13.0161 43.0076 13.0593 42.8597 13.0848C42.7859 13.0976 42.7263 13.1024 42.6774 13.1024L40.0204 13.1024L40.0204 16.2352C40.0204 16.4372 39.9978 16.6468 39.9509 16.8688C39.9275 16.9796 39.9044 17.0723 39.8814 17.1416C39.8233 17.3165 39.7441 17.4853 39.6383 17.6608C39.5856 17.7483 39.5398 17.8205 39.4994 17.872C39.3981 18.0016 39.2669 18.1217 39.1173 18.2328C39.0427 18.2883 38.9795 18.3272 38.9263 18.356C38.7932 18.4283 38.635 18.4852 38.4574 18.5144C38.3686 18.5291 38.3009 18.532 38.2404 18.532L36.1043 18.532L36.7642 16.7984L37.2158 16.7984C37.3268 16.7984 37.4339 16.7605 37.537 16.684C37.5873 16.6468 37.6282 16.6084 37.6586 16.5696C37.7312 16.4769 37.778 16.3569 37.8062 16.2088C37.82 16.1364 37.8323 16.0715 37.8323 16.0152L37.8323 13.1024L33.2042 13.1024L33.2042 6.7136L34.5674 6.7136L34.5935 6.6608L35.0624 5.5432L37.4242 5.5432ZM78.0519 7.3648L78.7726 5.7192L80.6829 5.7192L80.5787 6.08L80.5439 6.1944L85.7711 6.1944L85.7711 9.2392C85.7711 9.48873 85.7227 9.72632 85.6148 9.9608C85.5611 10.0773 85.502 10.1686 85.4498 10.2336C85.319 10.3967 85.154 10.5115 84.9549 10.5768C84.8559 10.6093 84.7733 10.6208 84.7031 10.6208L82.6539 10.6208L83.0012 9.6528L83.1054 9.6528C83.1816 9.6528 83.259 9.62014 83.3312 9.5648C83.3654 9.53858 83.3878 9.51317 83.4093 9.4856C83.4602 9.42058 83.5023 9.34102 83.5222 9.248C83.5312 9.20635 83.5309 9.16667 83.5309 9.1336L83.5309 9.1248L83.5309 7.3648L78.0519 7.3648ZM78.0953 10.5152L78.0953 7.928L82.3934 7.928L82.3934 9.776C82.3934 9.90803 82.3636 10.0372 82.3066 10.1632C82.2784 10.2256 82.2466 10.2785 82.2198 10.3128C82.1527 10.3985 82.0731 10.4544 81.968 10.4888C81.9157 10.5059 81.8652 10.5152 81.829 10.5152L78.0953 10.5152ZM42.0001 8.192L35.3923 8.192L35.3923 9.1512L42.0001 9.1512L42.0001 8.192ZM46.2982 16.6488L46.2982 8.3856L52.2634 8.3856C52.4921 8.3856 52.7211 8.47659 52.9494 8.6496C53.0652 8.73738 53.1597 8.82722 53.2272 8.9136C53.3994 9.13366 53.5138 9.40845 53.5832 9.7408C53.618 9.90771 53.644 10.0514 53.644 10.172L53.644 16.992C53.644 17.204 53.625 17.3985 53.5919 17.5816C53.5757 17.6714 53.5555 17.7462 53.5398 17.7928C53.4995 17.9131 53.4389 18.0395 53.3575 18.1712C53.3167 18.2373 53.2853 18.2887 53.2533 18.3296L53.2446 18.3296C53.1862 18.4124 53.1165 18.4812 53.0362 18.5408C52.9993 18.5682 52.9745 18.5902 52.9494 18.6024C52.8241 18.642 52.705 18.664 52.602 18.664L50.8568 18.664L51.2735 17.4056L51.4819 17.4056C51.5438 17.4056 51.5944 17.3864 51.6382 17.3528C51.6626 17.3341 51.6873 17.3136 51.699 17.2912L51.7077 17.2736L51.7077 17.2648L51.7164 17.2472C51.7164 17.2363 51.7337 17.23 51.7337 17.2208L51.7511 17.212L51.7511 17.1944L51.7858 17.08L51.7858 15.8216L48.0261 15.8216L48.0261 16.64L47.6701 18.664L45.9856 18.664L46.2982 16.6576L46.2982 16.6488ZM79.007 9.7584L81.1691 9.7584C81.3006 9.7584 81.3957 9.696 81.447 9.5648C81.4695 9.50731 81.473 9.4471 81.473 9.3888L81.473 8.7816L79.007 8.7816L79.007 9.7584ZM48.0261 10.128L48.0261 11.448L51.7858 11.448L51.7858 10.9112C51.7858 10.7804 51.7583 10.6518 51.699 10.524C51.6692 10.4599 51.6433 10.4053 51.6122 10.3656C51.5343 10.266 51.4337 10.1943 51.317 10.1544C51.2577 10.1341 51.207 10.128 51.1607 10.128L48.0261 10.128ZM42.0001 10.5416L35.3923 10.5416L35.3923 11.624L41.5399 11.624C41.735 11.624 41.8712 11.53 41.948 11.3336C41.9832 11.2435 42.0001 11.1517 42.0001 11.0608L42.0001 10.5416ZM78.2603 11.4304L92.6307 11.1488L92.6307 12.4512L86.7436 12.5832L86.6568 12.5832L86.6568 13.4104L92.2834 13.4104L92.2834 14.7128L86.6568 14.7128L86.6568 15.452L92.813 15.452L92.813 16.772L86.6568 16.772L86.6568 17.0096C86.6568 17.2861 86.5992 17.5611 86.4744 17.828C86.4123 17.9611 86.3443 18.0688 86.2834 18.1448C86.1314 18.3349 85.9374 18.4647 85.7016 18.5408C85.5841 18.5787 85.4909 18.6024 85.4064 18.6024L82.515 18.6024L82.9318 17.4672L83.5656 17.4672C83.6498 17.4672 83.7305 17.4427 83.8087 17.3792C83.8458 17.349 83.8727 17.314 83.8956 17.2824C83.9492 17.2087 83.9874 17.1214 84.0085 17.0184C84.0188 16.9673 84.0258 16.925 84.0258 16.8864L84.0258 16.772L77.9911 16.772L77.9911 15.452L84.0258 15.452L84.0258 14.7128L78.6337 14.7128L78.6337 13.4104L84.0258 13.4104L84.0258 12.6184L83.939 12.6272L78.2603 12.7328L78.2603 11.4304ZM60.8596 16.6224L60.1649 18.356L56.0405 18.356C55.9015 18.356 55.7591 18.333 55.6237 18.2856C55.557 18.2621 55.5049 18.2464 55.4674 18.224L55.4674 18.2152L55.4587 18.2152C55.3661 18.1758 55.2845 18.1207 55.2069 18.048C55.1236 17.9699 55.0417 17.8869 54.9638 17.8016C54.8785 17.7094 54.8019 17.5826 54.7294 17.4144C54.6926 17.3291 54.6614 17.2508 54.6425 17.1856L54.6425 17.1768C54.5881 17.0201 54.5516 16.845 54.5297 16.6488C54.5187 16.5507 54.5123 16.468 54.5123 16.4024L54.5123 11.2808L56.5441 11.2808L56.5441 14.4576L56.7091 14.1936L58.3502 11.4744L60.356 11.4744L57.6903 15.7776L56.5441 15.7776L56.5441 15.8656C56.5441 16.0043 56.5723 16.1332 56.6223 16.2528C56.6481 16.3145 56.6729 16.3584 56.7004 16.3936L56.7004 16.4024L56.7091 16.4024C56.7971 16.4944 56.9001 16.559 57.013 16.596C57.0713 16.6152 57.1175 16.6224 57.1606 16.6224L60.8596 16.6224ZM48.0261 12.9528L48.0261 14.3168L51.7858 14.3168L51.7858 12.9528L48.0261 12.9528ZM33.1695 18.576L34.4632 13.9296L36.5211 13.9296L35.2274 18.576L33.1695 18.576ZM42.1477 18.576L40.8366 13.9296L42.9118 13.9296L44.2056 18.576L42.1477 18.576Z" fill-rule="evenodd"  fill="url(#linear_fill_17_76)" ></path><g mask="url(#mask-17_76)"><rect x="62.635498046875" y="0" width="32.127197265625" height="22"   fill="#000000" ></rect></g><path d=""   fill="#F5F5F5" ></path><path d="M13.1711 10.0822L21.522 21.1526C21.6454 21.3163 21.8994 21.1618 21.8108 20.9769L15.0904 6.95773L13.1711 10.0822ZM12.3035 8.93171L14.4006 5.51814L12.4265 1.40223C12.3807 1.30661 12.2928 1.2379 12.1889 1.21645L9.4686 0.654789C9.28418 0.616711 9.10396 0.735891 9.06682 0.920491L8.50593 3.70782C8.48678 3.80302 8.50928 3.90187 8.56776 3.97939L12.3035 8.93171Z" fill-rule="evenodd"  fill="url(#linear_fill_17_1664)" ></path><path d="M16.7851 1.63458L11.4826 10.2653L7.92941 16.0497L3.59275 15.3274L16.5224 1.42953C16.661 1.2806 16.8919 1.46076 16.7851 1.63458ZM2.4849 16.5193L1.72464 17.3367C1.65605 17.4105 1.62372 17.5109 1.63636 17.6108L1.99278 20.4258C2.01641 20.6125 2.18729 20.7444 2.37389 20.7199L5.13585 20.3585C5.23748 20.3452 5.32768 20.2868 5.38131 20.1994L7.16423 17.2957L2.4849 16.5193Z" fill-rule="evenodd"  fill="url(#linear_fill_17_1667)" ></path><path d="M14.3864 13.9255L0.382022 14.4536C0.180689 14.4612 0.163005 14.7581 0.361795 14.7912L10.2382 16.4334L17.1409 17.581L14.3864 13.9255ZM19.0739 17.9021L21.6036 18.323C21.7053 18.3399 21.8092 18.3097 21.886 18.241L23.9834 16.3635C24.1216 16.2397 24.135 16.0278 24.0133 15.8877L22.1657 13.7591C22.0982 13.6814 21.9992 13.6384 21.8963 13.6423L16.0237 13.8636L16.0743 13.9306L18.4697 17.0999L19.0739 17.9021Z" fill-rule="evenodd"  fill="url(#linear_fill_17_1670)" ></path><defs><linearGradient id="linear_fill_17_76" x1="29.635498046875" y1="10.832000732421875" x2="92.812255859375" y2="10.832000732421875" gradientUnits="userSpaceOnUse"><stop offset="0" stop-color="#1494FC"  /><stop offset="0.223" stop-color="#007BFF"  /><stop offset="0.5997" stop-color="#0056F5"  /><stop offset="1" stop-color="#0056F5"  /></linearGradient><mask id="mask-17_76" style="mask-type:alpha" maskUnits="userSpaceOnUse"><path d="M47.783 3L49.7887 3L48.8336 5.596L48.7902 5.7192L51.4472 5.7192L51.4125 5.6048L51.0738 4.496L52.9841 4.496L53.8611 7.3912L52.6541 7.3912L52.6541 7.4088L46.2808 7.4088L47.783 3ZM30.3649 3.0616L44.6137 3.0616L44.6137 5.0416L32.553 5.0416L32.553 16.4552L31.8149 18.6024L29.6355 18.6024L30.3649 16.4992L30.3649 3.0616ZM85.7885 4.9536L84.677 4.9536L84.6597 5.0152L84.5729 5.2968L82.6626 5.2968L82.7321 5.068L82.7668 4.9536L80.8999 4.9536L80.9347 5.068L81.0041 5.2968L79.0939 5.2968L79.007 5.0152L78.9897 4.9536L78.0085 4.9536L78.0085 3.6512L78.6163 3.6512L78.5816 3.5456L78.46 3.0616L80.3529 3.0616L80.5092 3.5896L80.5266 3.6512L83.1402 3.6512L83.1575 3.5896L83.2964 3.0616L85.198 3.0616L85.0678 3.5368L85.0331 3.6512L85.7885 3.6512L85.7885 4.9536ZM91.5714 7.8048C91.4435 7.97549 91.336 8.11538 91.2414 8.2184L91.1459 8.3152L91.2761 8.3592C91.5162 8.44687 91.7685 8.53255 92.0316 8.6056C92.2729 8.67263 92.5181 8.72151 92.7783 8.764L92.7783 10.5504C92.0711 10.4639 91.3387 10.2703 90.5728 9.9784C90.1725 9.82583 89.8434 9.68303 89.5916 9.5472L89.5482 9.5296L89.5048 9.5472C89.1972 9.72589 88.8433 9.88959 88.4455 10.04C88.2465 10.1152 88.0871 10.1768 87.9505 10.216C87.6064 10.3147 87.2143 10.4045 86.7783 10.48C86.6053 10.51 86.4475 10.5329 86.3181 10.5504L86.3181 8.764C86.6668 8.70885 87.0278 8.62697 87.3861 8.5176C87.5785 8.45893 87.7278 8.40725 87.8463 8.3592L87.9679 8.3152L87.8811 8.2184C87.5048 7.81769 87.1672 7.30375 86.8652 6.6784C86.7383 6.41574 86.6348 6.17998 86.5613 5.9744L88.7581 5.9744C88.8464 6.20381 88.9523 6.41362 89.0706 6.5992C89.198 6.799 89.3427 6.98481 89.5048 7.1624L89.5743 7.2416L89.635 7.1624C89.7798 6.9867 89.9192 6.78076 90.0605 6.5376C90.1311 6.41615 90.1921 6.30795 90.2342 6.2208C90.339 6.00373 90.4329 5.74607 90.5207 5.4464C90.5646 5.29683 90.6017 5.16664 90.6249 5.0592L90.6423 4.9536L86.266 4.9536L86.8131 3.0616L88.7407 3.0616L88.6018 3.5368L88.567 3.6512L92.7783 3.6512L92.7783 5.0328C92.7013 5.43265 92.5837 5.8468 92.4223 6.2736C92.3411 6.48817 92.2706 6.6594 92.2052 6.7928C92.0413 7.12716 91.8272 7.46343 91.5714 7.8048ZM76.6279 18.5584L74.5092 18.5584L74.5092 3.1056L76.6279 3.1056L76.6279 18.5584ZM54.5123 8.324L54.5123 3.1496L56.5441 3.1496L56.5441 6.3264L56.7091 6.0624L58.3502 3.3872L60.356 3.3872L57.6903 7.6728L56.5441 7.6728L56.5441 7.7608C56.5441 7.88003 56.5733 8.00615 56.6223 8.1392C56.6467 8.20532 56.6666 8.25352 56.6917 8.2976L56.7004 8.3152L56.7091 8.324C56.7971 8.40574 56.9007 8.45841 57.013 8.4912C57.0704 8.50798 57.1184 8.5176 57.1606 8.5176L60.8596 8.5176L60.1649 10.2776L56.0405 10.2776C55.9084 10.2776 55.7707 10.2548 55.6324 10.2072C55.5635 10.1835 55.5082 10.1596 55.4674 10.1368C55.3417 10.0776 55.2176 9.98542 55.1027 9.8728C55.0453 9.81652 55.0036 9.76625 54.9725 9.7232L54.9638 9.7232C54.8772 9.62114 54.8024 9.48424 54.7294 9.3184C54.6926 9.23477 54.6615 9.1605 54.6425 9.0984C54.5878 8.93218 54.5516 8.75472 54.5297 8.5616C54.5187 8.46537 54.5123 8.38582 54.5123 8.324ZM62.8914 5.2352L62.8914 3.264L72.5643 3.264L72.5643 9.4944L65.4702 9.4944L65.4616 9.5736L65.149 11.9584L65.1403 12.064L72.7206 12.064L72.7206 16.2792C72.7206 16.4812 72.6893 16.6908 72.6424 16.9128C72.619 17.0236 72.596 17.1163 72.5729 17.1856C72.5149 17.3605 72.4356 17.5293 72.3298 17.7048C72.2771 17.7923 72.2312 17.8645 72.1909 17.916C72.0894 18.0456 71.9671 18.1656 71.8175 18.2768C71.7429 18.3323 71.6796 18.3712 71.6265 18.4C71.4934 18.4723 71.3351 18.5292 71.1576 18.5584C71.0687 18.573 70.9924 18.576 70.9319 18.576L62.9956 18.576L63.6815 16.6048L69.9159 16.6048C70.0265 16.6048 70.1315 16.5663 70.2372 16.4904C70.2887 16.4534 70.3271 16.4144 70.3588 16.376C70.4361 16.2823 70.4912 16.1664 70.5151 16.024C70.5247 15.9662 70.5238 15.9128 70.5238 15.8656C70.5238 15.8566 70.5238 15.8392 70.5238 15.8392L70.5238 14.0352L62.9001 14.0352L63.6295 7.5232L70.3761 7.5232L70.3761 5.2352L62.8914 5.2352ZM37.4242 5.5432L36.9813 6.5904L36.9292 6.7136L44.1882 6.7136L44.1882 11.1488C44.1882 11.3235 44.1686 11.5051 44.1274 11.6944C44.1069 11.7887 44.0868 11.8649 44.0666 11.9232C44.0156 12.0711 43.9384 12.2165 43.8496 12.3632C43.8054 12.4362 43.77 12.4967 43.7367 12.5392C43.6531 12.6461 43.5437 12.7435 43.4154 12.8384C43.3513 12.8858 43.2966 12.9275 43.2504 12.9528C43.1349 13.0161 43.0076 13.0593 42.8597 13.0848C42.7859 13.0976 42.7263 13.1024 42.6774 13.1024L40.0204 13.1024L40.0204 16.2352C40.0204 16.4372 39.9978 16.6468 39.9509 16.8688C39.9275 16.9796 39.9044 17.0723 39.8814 17.1416C39.8233 17.3165 39.7441 17.4853 39.6383 17.6608C39.5856 17.7483 39.5398 17.8205 39.4994 17.872C39.3981 18.0016 39.2669 18.1217 39.1173 18.2328C39.0427 18.2883 38.9795 18.3272 38.9263 18.356C38.7932 18.4283 38.635 18.4852 38.4574 18.5144C38.3686 18.5291 38.3009 18.532 38.2404 18.532L36.1043 18.532L36.7642 16.7984L37.2158 16.7984C37.3268 16.7984 37.4339 16.7605 37.537 16.684C37.5873 16.6468 37.6282 16.6084 37.6586 16.5696C37.7312 16.4769 37.778 16.3569 37.8062 16.2088C37.82 16.1364 37.8323 16.0715 37.8323 16.0152L37.8323 13.1024L33.2042 13.1024L33.2042 6.7136L34.5674 6.7136L34.5935 6.6608L35.0624 5.5432L37.4242 5.5432ZM78.0519 7.3648L78.7726 5.7192L80.6829 5.7192L80.5787 6.08L80.5439 6.1944L85.7711 6.1944L85.7711 9.2392C85.7711 9.48873 85.7227 9.72632 85.6148 9.9608C85.5611 10.0773 85.502 10.1686 85.4498 10.2336C85.319 10.3967 85.154 10.5115 84.9549 10.5768C84.8559 10.6093 84.7733 10.6208 84.7031 10.6208L82.6539 10.6208L83.0012 9.6528L83.1054 9.6528C83.1816 9.6528 83.259 9.62014 83.3312 9.5648C83.3654 9.53858 83.3878 9.51317 83.4093 9.4856C83.4602 9.42058 83.5023 9.34102 83.5222 9.248C83.5312 9.20635 83.5309 9.16667 83.5309 9.1336L83.5309 9.1248L83.5309 7.3648L78.0519 7.3648ZM78.0953 10.5152L78.0953 7.928L82.3934 7.928L82.3934 9.776C82.3934 9.90803 82.3636 10.0372 82.3066 10.1632C82.2784 10.2256 82.2466 10.2785 82.2198 10.3128C82.1527 10.3985 82.0731 10.4544 81.968 10.4888C81.9157 10.5059 81.8652 10.5152 81.829 10.5152L78.0953 10.5152ZM42.0001 8.192L35.3923 8.192L35.3923 9.1512L42.0001 9.1512L42.0001 8.192ZM46.2982 16.6488L46.2982 8.3856L52.2634 8.3856C52.4921 8.3856 52.7211 8.47659 52.9494 8.6496C53.0652 8.73738 53.1597 8.82722 53.2272 8.9136C53.3994 9.13366 53.5138 9.40845 53.5832 9.7408C53.618 9.90771 53.644 10.0514 53.644 10.172L53.644 16.992C53.644 17.204 53.625 17.3985 53.5919 17.5816C53.5757 17.6714 53.5555 17.7462 53.5398 17.7928C53.4995 17.9131 53.4389 18.0395 53.3575 18.1712C53.3167 18.2373 53.2853 18.2887 53.2533 18.3296L53.2446 18.3296C53.1862 18.4124 53.1165 18.4812 53.0362 18.5408C52.9993 18.5682 52.9745 18.5902 52.9494 18.6024C52.8241 18.642 52.705 18.664 52.602 18.664L50.8568 18.664L51.2735 17.4056L51.4819 17.4056C51.5438 17.4056 51.5944 17.3864 51.6382 17.3528C51.6626 17.3341 51.6873 17.3136 51.699 17.2912L51.7077 17.2736L51.7077 17.2648L51.7164 17.2472C51.7164 17.2363 51.7337 17.23 51.7337 17.2208L51.7511 17.212L51.7511 17.1944L51.7858 17.08L51.7858 15.8216L48.0261 15.8216L48.0261 16.64L47.6701 18.664L45.9856 18.664L46.2982 16.6576L46.2982 16.6488ZM79.007 9.7584L81.1691 9.7584C81.3006 9.7584 81.3957 9.696 81.447 9.5648C81.4695 9.50731 81.473 9.4471 81.473 9.3888L81.473 8.7816L79.007 8.7816L79.007 9.7584ZM48.0261 10.128L48.0261 11.448L51.7858 11.448L51.7858 10.9112C51.7858 10.7804 51.7583 10.6518 51.699 10.524C51.6692 10.4599 51.6433 10.4053 51.6122 10.3656C51.5343 10.266 51.4337 10.1943 51.317 10.1544C51.2577 10.1341 51.207 10.128 51.1607 10.128L48.0261 10.128ZM42.0001 10.5416L35.3923 10.5416L35.3923 11.624L41.5399 11.624C41.735 11.624 41.8712 11.53 41.948 11.3336C41.9832 11.2435 42.0001 11.1517 42.0001 11.0608L42.0001 10.5416ZM78.2603 11.4304L92.6307 11.1488L92.6307 12.4512L86.7436 12.5832L86.6568 12.5832L86.6568 13.4104L92.2834 13.4104L92.2834 14.7128L86.6568 14.7128L86.6568 15.452L92.813 15.452L92.813 16.772L86.6568 16.772L86.6568 17.0096C86.6568 17.2861 86.5992 17.5611 86.4744 17.828C86.4123 17.9611 86.3443 18.0688 86.2834 18.1448C86.1314 18.3349 85.9374 18.4647 85.7016 18.5408C85.5841 18.5787 85.4909 18.6024 85.4064 18.6024L82.515 18.6024L82.9318 17.4672L83.5656 17.4672C83.6498 17.4672 83.7305 17.4427 83.8087 17.3792C83.8458 17.349 83.8727 17.314 83.8956 17.2824C83.9492 17.2087 83.9874 17.1214 84.0085 17.0184C84.0188 16.9673 84.0258 16.925 84.0258 16.8864L84.0258 16.772L77.9911 16.772L77.9911 15.452L84.0258 15.452L84.0258 14.7128L78.6337 14.7128L78.6337 13.4104L84.0258 13.4104L84.0258 12.6184L83.939 12.6272L78.2603 12.7328L78.2603 11.4304ZM60.8596 16.6224L60.1649 18.356L56.0405 18.356C55.9015 18.356 55.7591 18.333 55.6237 18.2856C55.557 18.2621 55.5049 18.2464 55.4674 18.224L55.4674 18.2152L55.4587 18.2152C55.3661 18.1758 55.2845 18.1207 55.2069 18.048C55.1236 17.9699 55.0417 17.8869 54.9638 17.8016C54.8785 17.7094 54.8019 17.5826 54.7294 17.4144C54.6926 17.3291 54.6614 17.2508 54.6425 17.1856L54.6425 17.1768C54.5881 17.0201 54.5516 16.845 54.5297 16.6488C54.5187 16.5507 54.5123 16.468 54.5123 16.4024L54.5123 11.2808L56.5441 11.2808L56.5441 14.4576L56.7091 14.1936L58.3502 11.4744L60.356 11.4744L57.6903 15.7776L56.5441 15.7776L56.5441 15.8656C56.5441 16.0043 56.5723 16.1332 56.6223 16.2528C56.6481 16.3145 56.6729 16.3584 56.7004 16.3936L56.7004 16.4024L56.7091 16.4024C56.7971 16.4944 56.9001 16.559 57.013 16.596C57.0713 16.6152 57.1175 16.6224 57.1606 16.6224L60.8596 16.6224ZM48.0261 12.9528L48.0261 14.3168L51.7858 14.3168L51.7858 12.9528L48.0261 12.9528ZM33.1695 18.576L34.4632 13.9296L36.5211 13.9296L35.2274 18.576L33.1695 18.576ZM42.1477 18.576L40.8366 13.9296L42.9118 13.9296L44.2056 18.576L42.1477 18.576Z" fill-rule="evenodd"  fill="url(#linear_fill_17_76)" ></path></mask><linearGradient id="linear_fill_17_1664" x1="9.092529296875" y1="0.627471923828125" x2="21.8095703125" y2="21.220428466796875" gradientUnits="userSpaceOnUse"><stop offset="0" stop-color="#47A3FF"  /><stop offset="1" stop-color="#0064D6"  /></linearGradient><linearGradient id="linear_fill_17_1667" x1="2.22216796875" y1="20.3927001953125" x2="16.817138671875" y2="1.575592041015625" gradientUnits="userSpaceOnUse"><stop offset="0" stop-color="#47A3FF"  /><stop offset="1" stop-color="#0064D6"  /></linearGradient><linearGradient id="linear_fill_17_1670" x1="0.135986328125" y1="15.294281005859375" x2="24.0927734375" y2="15.98260498046875" gradientUnits="userSpaceOnUse"><stop offset="0" stop-color="#0064D6"  /><stop offset="1" stop-color="#47A3FF"  /></linearGradient></defs></svg>