<svg xmlns="http://www.w3.org/2000/svg" xmlns:xlink="http://www.w3.org/1999/xlink" width="92.48388671875" height="20.578277587890625" viewBox="0 0 92.48388671875 20.578277587890625" fill="none"><path d="M47.4539 2.29601L49.4596 2.29601L48.5045 4.89201L48.4611 5.01521L51.1181 5.01521L51.0834 4.90081L50.7447 3.79201L52.655 3.79201L53.532 6.68721L52.325 6.68721L52.325 6.70481L45.9517 6.70481L47.4539 2.29601ZM30.0358 2.35761L44.2846 2.35761L44.2846 4.33761L32.2239 4.33761L32.2239 15.7512L31.4858 17.8984L29.3064 17.8984L30.0358 15.7952L30.0358 2.35761ZM85.4594 4.24961L84.3479 4.24961L84.3306 4.31121L84.2438 4.59281L82.3335 4.59281L82.403 4.36401L82.4377 4.24961L80.5708 4.24961L80.6056 4.36401L80.675 4.59281L78.7648 4.59281L78.6779 4.31121L78.6606 4.24961L77.6794 4.24961L77.6794 2.94721L78.2872 2.94721L78.2525 2.84161L78.1309 2.35761L80.0238 2.35761L80.1801 2.88561L80.1975 2.94721L82.8111 2.94721L82.8284 2.88561L82.9673 2.35761L84.8689 2.35761L84.7387 2.83281L84.7039 2.94721L85.4594 2.94721L85.4594 4.24961ZM91.2422 7.10081C91.1143 7.2715 91.0069 7.41138 90.9123 7.51441L90.8168 7.61121L90.947 7.65521C91.1871 7.74288 91.4394 7.82856 91.7025 7.90161C91.9437 7.96864 92.189 8.01751 92.4492 8.06001L92.4492 9.84641C91.742 9.75989 91.0096 9.56635 90.2437 9.27441C89.8434 9.12184 89.5143 8.97903 89.2625 8.8432L89.2191 8.82561L89.1757 8.8432C88.8681 9.0219 88.5142 9.1856 88.1164 9.33601C87.9174 9.41122 87.758 9.47282 87.6214 9.512C87.2773 9.61072 86.8852 9.7005 86.4492 9.776C86.2762 9.80597 86.1184 9.82892 85.989 9.84641L85.989 8.06001C86.3377 8.00486 86.6987 7.92297 87.057 7.81361C87.2494 7.75494 87.3987 7.70325 87.5172 7.65521L87.6388 7.61121L87.552 7.51441C87.1757 7.1137 86.8381 6.59976 86.5361 5.97441C86.4092 5.71174 86.3057 5.47598 86.2322 5.27041L88.429 5.27041C88.5173 5.49981 88.6232 5.70962 88.7415 5.89521C88.8689 6.095 89.0136 6.28081 89.1757 6.45841L89.2452 6.53761L89.3059 6.45841C89.4507 6.2827 89.5901 6.07677 89.7314 5.83361C89.802 5.71216 89.863 5.60395 89.9051 5.51681C90.0099 5.29974 90.1038 5.04207 90.1916 4.74241C90.2355 4.59283 90.2726 4.46264 90.2958 4.35521L90.3132 4.24961L85.9369 4.24961L86.484 2.35761L88.4116 2.35761L88.2727 2.83281L88.2379 2.94721L92.4492 2.94721L92.4492 4.3288C92.3722 4.72865 92.2546 5.14281 92.0932 5.5696C92.012 5.78418 91.9415 5.95541 91.8761 6.08881C91.7122 6.42317 91.4981 6.75944 91.2422 7.10081ZM76.2988 17.8544L74.1801 17.8544L74.1801 2.40161L76.2988 2.40161L76.2988 17.8544ZM54.1832 7.62001L54.1832 2.44561L56.215 2.44561L56.215 5.62241L56.38 5.35841L58.0211 2.68321L60.0269 2.68321L57.3612 6.96881L56.215 6.96881L56.215 7.05681C56.215 7.17604 56.2442 7.30216 56.2932 7.43521C56.3176 7.50133 56.3375 7.54953 56.3626 7.59361L56.3713 7.61121L56.38 7.62001C56.468 7.70175 56.5716 7.75442 56.6839 7.78721C56.7413 7.80399 56.7893 7.81361 56.8315 7.81361L60.5305 7.81361L59.8358 9.5736L55.7114 9.5736C55.5793 9.5736 55.4416 9.5508 55.3033 9.50321C55.2344 9.47952 55.1791 9.45564 55.1383 9.43281C55.0126 9.3736 54.8885 9.28143 54.7736 9.16881C54.7162 9.11253 54.6745 9.06225 54.6434 9.01921L54.6347 9.01921C54.5481 8.91714 54.4733 8.78024 54.4003 8.6144C54.3635 8.53078 54.3324 8.45651 54.3134 8.39441C54.2587 8.22818 54.2225 8.05072 54.2006 7.85761C54.1896 7.76138 54.1832 7.68183 54.1832 7.62001ZM62.5623 4.53121L62.5623 2.56001L72.2352 2.56001L72.2352 8.79041L65.1411 8.79041L65.1325 8.86961L64.8199 11.2544L64.8112 11.36L72.3914 11.36L72.3914 15.5752C72.3914 15.7773 72.3602 15.9868 72.3133 16.2088C72.2899 16.3196 72.2669 16.4123 72.2438 16.4816C72.1858 16.6565 72.1065 16.8253 72.0007 17.0008C71.948 17.0883 71.9021 17.1605 71.8618 17.212C71.7603 17.3416 71.638 17.4616 71.4884 17.5728C71.4138 17.6283 71.3504 17.6672 71.2974 17.696C71.1643 17.7683 71.006 17.8252 70.8285 17.8544C70.7396 17.869 70.6633 17.872 70.6028 17.872L62.6665 17.872L63.3524 15.9008L69.5868 15.9008C69.6974 15.9008 69.8024 15.8623 69.9081 15.7864C69.9596 15.7494 69.998 15.7104 70.0297 15.672C70.107 15.5783 70.1621 15.4624 70.186 15.32C70.1956 15.2622 70.1947 15.2088 70.1947 15.1616C70.1947 15.1526 70.1947 15.1352 70.1947 15.1352L70.1947 13.3312L62.571 13.3312L63.3004 6.81921L70.047 6.81921L70.047 4.53121L62.5623 4.53121ZM37.0951 4.83921L36.6522 5.8864L36.6001 6.00961L43.8591 6.00961L43.8591 10.4448C43.8591 10.6195 43.8395 10.8011 43.7983 10.9904C43.7778 11.0848 43.7577 11.1609 43.7375 11.2192C43.6865 11.3671 43.6093 11.5125 43.5205 11.6592C43.4763 11.7322 43.4408 11.7927 43.4076 11.8352C43.324 11.9421 43.2146 12.0395 43.0863 12.1344C43.0222 12.1818 42.9675 12.2235 42.9213 12.2488C42.8058 12.3121 42.6785 12.3553 42.5306 12.3808C42.4568 12.3936 42.3972 12.3984 42.3483 12.3984L39.6913 12.3984L39.6913 15.5312C39.6913 15.7333 39.6687 15.9428 39.6218 16.1648C39.5984 16.2756 39.5753 16.3683 39.5523 16.4376C39.4942 16.6125 39.415 16.7813 39.3092 16.9568C39.2565 17.0443 39.2107 17.1165 39.1703 17.168C39.069 17.2976 38.9378 17.4177 38.7882 17.5288C38.7136 17.5843 38.6503 17.6232 38.5972 17.652C38.4641 17.7243 38.3059 17.7812 38.1283 17.8104C38.0395 17.8251 37.9718 17.828 37.9113 17.828L35.7752 17.828L36.4351 16.0944L36.8867 16.0944C36.9977 16.0944 37.1048 16.0565 37.2079 15.98C37.2582 15.9428 37.2991 15.9044 37.3295 15.8656C37.4021 15.7729 37.4489 15.6529 37.4771 15.5048C37.4909 15.4324 37.5032 15.3675 37.5032 15.3112L37.5032 12.3984L32.8751 12.3984L32.8751 6.00961L34.2383 6.00961L34.2644 5.95681L34.7333 4.83921L37.0951 4.83921ZM77.7228 6.66081L78.4435 5.01521L80.3538 5.01521L80.2496 5.37601L80.2148 5.49041L85.442 5.49041L85.442 8.53521C85.442 8.78474 85.3936 9.02233 85.2857 9.25681C85.232 9.37335 85.1729 9.46462 85.1207 9.52961C84.9899 9.6927 84.8249 9.80754 84.6258 9.8728C84.5268 9.90527 84.4442 9.91681 84.374 9.91681L82.3248 9.91681L82.6721 8.9488L82.7763 8.9488C82.8525 8.9488 82.9299 8.91615 83.0021 8.86081C83.0363 8.83458 83.0587 8.80918 83.0802 8.7816C83.1311 8.71658 83.1732 8.63703 83.1931 8.544C83.2021 8.50235 83.2018 8.46268 83.2018 8.42961L83.2018 8.4208L83.2018 6.66081L77.7228 6.66081ZM77.7662 9.8112L77.7662 7.22401L82.0643 7.22401L82.0643 9.07201C82.0643 9.20403 82.0345 9.33325 81.9775 9.45921C81.9493 9.52159 81.9175 9.57451 81.8907 9.6088C81.8236 9.69447 81.744 9.75042 81.6389 9.78481C81.5866 9.80189 81.5361 9.8112 81.4999 9.8112L77.7662 9.8112ZM41.671 7.48801L35.0632 7.48801L35.0632 8.4472L41.671 8.4472L41.671 7.48801ZM45.9691 15.9448L45.9691 7.68161L51.9343 7.68161C52.163 7.68161 52.392 7.7726 52.6203 7.94561C52.7361 8.03339 52.8306 8.12322 52.8981 8.20961C53.0703 8.42967 53.1847 8.70446 53.2541 9.03681C53.2889 9.20371 53.3149 9.3474 53.3149 9.46801L53.3149 16.288C53.3149 16.5 53.2959 16.6945 53.2628 16.8776C53.2466 16.9675 53.2264 17.0422 53.2107 17.0888C53.1704 17.2091 53.1098 17.3355 53.0284 17.4672C52.9875 17.5333 52.9562 17.5847 52.9242 17.6256L52.9155 17.6256C52.8571 17.7084 52.7874 17.7772 52.7071 17.8368C52.6702 17.8642 52.6454 17.8862 52.6203 17.8984C52.495 17.938 52.3759 17.96 52.2729 17.96L50.5277 17.96L50.9444 16.7016L51.1528 16.7016C51.2147 16.7016 51.2653 16.6824 51.3091 16.6488C51.3335 16.6301 51.3582 16.6096 51.3699 16.5872L51.3786 16.5696L51.3786 16.5608L51.3873 16.5432C51.3873 16.5323 51.4046 16.526 51.4046 16.5168L51.422 16.508L51.422 16.4904L51.4567 16.376L51.4567 15.1176L47.697 15.1176L47.697 15.936L47.341 17.96L45.6565 17.96L45.9691 15.9536L45.9691 15.9448ZM78.6779 9.05441L80.84 9.05441C80.9715 9.05441 81.0666 8.992 81.1179 8.86081C81.1404 8.80331 81.1439 8.7431 81.1439 8.6848L81.1439 8.07761L78.6779 8.07761L78.6779 9.05441ZM47.697 9.42401L47.697 10.744L51.4567 10.744L51.4567 10.2072C51.4567 10.0764 51.4292 9.94776 51.3699 9.82001C51.3401 9.75591 51.3142 9.70132 51.2831 9.66161C51.2052 9.56201 51.1046 9.49035 50.9879 9.45041C50.9286 9.43012 50.8779 9.42401 50.8316 9.42401L47.697 9.42401ZM41.671 9.83761L35.0632 9.83761L35.0632 10.92L41.2108 10.92C41.4059 10.92 41.542 10.826 41.6189 10.6296C41.6541 10.5395 41.671 10.4477 41.671 10.3568L41.671 9.83761ZM77.9312 10.7264L92.3016 10.4448L92.3016 11.7472L86.4145 11.8792L86.3277 11.8792L86.3277 12.7064L91.9543 12.7064L91.9543 14.0088L86.3277 14.0088L86.3277 14.748L92.4839 14.748L92.4839 16.068L86.3277 16.068L86.3277 16.3056C86.3277 16.5821 86.2701 16.8571 86.1453 17.124C86.0832 17.2571 86.0152 17.3648 85.9543 17.4408C85.8023 17.6309 85.6083 17.7607 85.3725 17.8368C85.255 17.8747 85.1618 17.8984 85.0773 17.8984L82.1859 17.8984L82.6027 16.7632L83.2365 16.7632C83.3207 16.7632 83.4014 16.7387 83.4796 16.6752C83.5167 16.645 83.5435 16.61 83.5665 16.5784C83.6201 16.5047 83.6583 16.4175 83.6794 16.3144C83.6897 16.2633 83.6967 16.221 83.6967 16.1824L83.6967 16.068L77.662 16.068L77.662 14.748L83.6967 14.748L83.6967 14.0088L78.3046 14.0088L78.3046 12.7064L83.6967 12.7064L83.6967 11.9144L83.6099 11.9232L77.9312 12.0288L77.9312 10.7264ZM60.5305 15.9184L59.8358 17.652L55.7114 17.652C55.5724 17.652 55.43 17.629 55.2946 17.5816C55.2279 17.5581 55.1758 17.5424 55.1383 17.52L55.1383 17.5112L55.1296 17.5112C55.037 17.4718 54.9554 17.4167 54.8778 17.344C54.7945 17.2659 54.7126 17.1829 54.6347 17.0976C54.5494 17.0054 54.4728 16.8786 54.4003 16.7104C54.3635 16.6251 54.3323 16.5468 54.3134 16.4816L54.3134 16.4728C54.259 16.3161 54.2225 16.141 54.2006 15.9448C54.1896 15.8467 54.1832 15.764 54.1832 15.6984L54.1832 10.5768L56.215 10.5768L56.215 13.7536L56.38 13.4896L58.0211 10.7704L60.0269 10.7704L57.3612 15.0736L56.215 15.0736L56.215 15.1616C56.215 15.3003 56.2432 15.4292 56.2932 15.5488C56.319 15.6105 56.3438 15.6544 56.3713 15.6896L56.3713 15.6984L56.38 15.6984C56.468 15.7904 56.571 15.855 56.6839 15.892C56.7422 15.9112 56.7884 15.9184 56.8315 15.9184L60.5305 15.9184ZM47.697 12.2488L47.697 13.6128L51.4567 13.6128L51.4567 12.2488L47.697 12.2488ZM32.8404 17.872L34.1341 13.2256L36.192 13.2256L34.8983 17.872L32.8404 17.872ZM41.8186 17.872L40.5075 13.2256L42.5827 13.2256L43.8765 17.872L41.8186 17.872Z" fill-rule="evenodd"  fill="#FFFFFF" ></path><path d="M12.0805 8.28L14.1805 4.87L16.5605 0.99C16.6673 0.81617 16.439 0.631069 16.3005 0.78L13.6105 3.68L12.2005 0.75C12.1546 0.654382 12.0744 0.591444 11.9705 0.57L9.25049 0.01C9.06608 -0.028075 8.88764 0.085392 8.85049 0.27L8.28049 3.06C8.26133 3.1552 8.29201 3.25247 8.35049 3.33L10.8505 6.65L4.33049 13.65L0.160488 13.81C-0.0408397 13.81 -0.0582947 14.1069 0.140488 14.14L4.77049 14.91L7.71049 15.4L10.0205 15.79L16.9205 16.93L14.1605 13.28L8.89049 13.48L11.2605 9.62L12.0805 8.28ZM12.9505 9.43L21.3005 20.51C21.424 20.6737 21.679 20.5148 21.5905 20.33L20.2205 17.48L21.3805 17.68C21.4822 17.6969 21.5838 17.6587 21.6605 17.59L23.7605 15.72C23.8988 15.5962 23.9121 15.3802 23.7905 15.24L21.9405 13.11C21.8731 13.0323 21.7733 12.99 21.6705 12.99L18.1405 13.13L14.8705 6.31L12.9505 9.43ZM2.26049 15.87L1.50049 16.69C1.4319 16.7637 1.39784 16.86 1.41049 16.96L1.77049 19.78C1.79412 19.9666 1.9639 20.0944 2.15049 20.07L4.91049 19.71C5.01211 19.6967 5.10686 19.6373 5.16049 19.55L6.94049 16.65L2.26049 15.87Z" fill-rule="evenodd"  fill="#FFFFFF" ></path></svg>